<svg xmlns="http://www.w3.org/2000/svg" width="370.244" height="330.542" viewBox="0 0 370.244 330.542"><defs><style>.a{fill:#fff;}.b{fill:#645d5c;}.c{fill:#3f88c9;}.d{fill:#231815;}.e{fill:#211715;}.f{fill:#ffda71;}</style></defs><path class="a" d="M169.869,48.566a4.356,4.356,0,0,0-4.432,4.4c0,13.223,0,46.613,0,60.484,5.819,2.39,28.958,13.144,54.368,24.945l41.543,21.235c21.54,11.25,43.61,22.94,49.22,25.88,9.328,4.894,48.48,23.363,57.464,28.905,0-15.973.088-52.914.1-71.488a15.7,15.7,0,0,0-8.427-13.115c-34.916-15.9-152.487-66.9-188.515-80.966A4.1,4.1,0,0,0,169.869,48.566Z"/><path class="a" d="M153.606,180.157c-20.544-8.163-40.93-14.932-53.449-15.6l.305-.238.822-.644c22.67-17.75,53.629-42.66,64.15-50.22,5.819,2.39,28.957,13.144,54.367,24.945l41.543,21.235c21.54,11.25,43.61,22.94,49.22,25.88,9.321,4.891,48.42,23.335,57.443,28.892,0,12.93.033,40.254.239,54.936a1.956,1.956,0,0,1-.541,1.388c-1.721,1.822-3.507,3.7-5.339,5.626-11.261,11.819-24.26,25.2-34.6,35.88-3.932,4.059-7.48,7.728-10.4,10.774,0,0-.159.165-.471.5-.271-11.662-2.382-33.092-2.846-35.8-2.378-13.847-6.409-21.934-16.488-31.721-6.37-6.185-68.162-41.506-78.54-46.552C210.015,205.056,181.664,191.306,153.606,180.157Z"/><path class="a" d="M196.576,175.347a5.4,5.4,0,0,0-1.611-.747,3.8,3.8,0,0,0-4.833,2.048,13.012,13.012,0,0,0-1.339,8.1,10,10,0,0,0,1.507,4.14,8.222,8.222,0,0,0,3.054,2.724,26.745,26.745,0,0,0-.277,3,23.431,23.431,0,0,0,.067,3.778c8.763,3.525,17.562,7,25.87,11.043a152.385,152.385,0,0,1,17.916,10.753,16.287,16.287,0,0,0,7.2-4.568c.66-.681,1.542-1.724,2.3-2.688.2.026.317.039.317.039a8.369,8.369,0,0,0,3.743.52,10,10,0,0,0,4.163-1.441A13.016,13.016,0,0,0,260.1,205.9a4.408,4.408,0,0,0,.415-2.081,4.356,4.356,0,0,0-1.875-2.961,5.011,5.011,0,0,0-3.81-.9c3.858-9.25,4.636-24.113-16.236-35.462C207.408,147.532,197.859,174.8,196.576,175.347Z"/><path class="b" d="M221.657,167.54a.754.754,0,0,0-.685-.251c-4.731.766-12.292,4.308-16.752,6.843l-6.252,2.657a5.135,5.135,0,0,0-3-2.189,1.123,1.123,0,0,0-.128-.028l.835-6.259a32.627,32.627,0,0,1,8.577-16.707,31.286,31.286,0,0,1,17.394-8.695l-3.027-3.086c4.562-1.1,13.256-.963,18.26,1.09,4.922,2.02,12.027,5.208,14.592,12.7,5.855.727,12.275,8.313,13.828,11.828a27.309,27.309,0,0,1,1.989,7.562,22.068,22.068,0,0,1-.022,5.815,42,42,0,0,1-3.247,12.693,61.921,61.921,0,0,1-4.36,8.21,8.259,8.259,0,0,1-.954,1.174l-.06-.044a5.135,5.135,0,0,0-3.592-.951l-3.938-1.19a3,3,0,0,1-2.087-3.373h0a37.924,37.924,0,0,0-3.29-15.595,19.956,19.956,0,0,0-4.208-6.407c-.932-1.017-4.616-3.8-5.293-3.751-4.142.317-10.337,1.818-13.744,2.454a1.036,1.036,0,0,1-1.048-1.524,5.474,5.474,0,0,0,.507-1.93A1.372,1.372,0,0,0,221.657,167.54Z"/><path class="c" d="M27.339,45.822c-.221,12.627.948,87.438,1.407,94.423C34.275,136.463,93.316,93.51,99.4,88.3c0-8.459-1.485-80.052-1.537-86.293C95.916,2.539,29.68,44.166,27.339,45.822Z"/><path class="d" d="M25.339,45.822c-.2,11.795.1,23.612.251,35.406q.3,23,.774,46c.095,4.333.1,8.689.382,13.017.09,1.4,1.671,2.644,3.009,1.727,8.313-5.7,16.383-11.772,24.526-17.7Q72,111.364,89.6,98.3c3.514-2.623,7.058-5.222,10.47-7.978a2.805,2.805,0,0,0,1.325-2.311c.02-.636-.008-1.277-.015-1.913q-.031-3.021-.084-6.043-.332-21.158-.775-42.313c-.22-11.457-.473-22.914-.644-34.371-.007-.456-.014-.912-.018-1.367A2.02,2.02,0,0,0,97.328.078a13.125,13.125,0,0,0-2.692,1.414c-1.75,1.024-3.483,2.076-5.215,3.13Q81.132,9.665,72.905,14.806q-18.632,11.58-37.18,23.3c-3.131,1.978-6.364,3.863-9.4,5.994-2.089,1.47-.093,4.94,2.019,3.454,2.505-1.761,5.172-3.323,7.758-4.959q8.223-5.2,16.47-10.37C64.861,24.513,77.151,16.811,89.523,9.245c2.133-1.3,4.268-2.607,6.419-3.88.657-.388,1.313-.777,1.98-1.148.2-.112.407-.214.605-.329.477-.275-.238.078-.136.047L95.859,2.007c.086,9.86.354,19.721.544,29.579q.418,21.729.811,43.457c.075,4.418.181,8.838.182,13.257l.586-1.414c-.425.363-.862.711-1.3,1.058q-.415.328-.833.653l-.469.364c.5-.388-.2.152-.311.239q-2.838,2.18-5.709,4.319-8.02,6.009-16.106,11.933-17.612,12.957-35.327,25.77c-3.384,2.446-6.745,4.936-10.19,7.3l3.009,1.727c-.235-3.639-.252-7.3-.336-10.944q-.234-10.218-.4-20.436Q29.6,85.3,29.372,61.738c-.045-5.3-.124-10.612-.033-15.916C29.382,43.247,25.383,43.247,25.339,45.822Z"/><path class="d" d="M260.334,161.358c16.828,8.79,33.523,17.855,50.424,26.5,12.743,6.52,25.726,12.57,38.535,18.959,5.944,2.966,12.032,5.831,17.7,9.308L366,214.4q0,21.865.13,43.73.039,5.606.11,11.21c.034,2.572,4.034,2.579,4,0-.178-13.17-.2-26.342-.225-39.513q-.009-4.607-.013-9.212,0-1.98,0-3.961c0-1.469.3-3.121-1.1-4.046a100.043,100.043,0,0,0-9.649-5.228c-9.9-5.084-19.918-9.93-29.918-14.808-7.186-3.506-14.374-7-21.447-10.725q-19.747-10.409-39.509-20.79l-6.031-3.154c-2.279-1.19-4.3,2.26-2.019,3.454Z"/><path class="d" d="M317.988,264.078c11.593-10.616,22.86-21.586,34.324-32.34,2.436-2.284,4.876-4.565,7.357-6.8,1.918-1.726-.918-4.547-2.828-2.828-11.188,10.072-21.932,20.644-32.894,30.959q-4.373,4.113-8.788,8.179c-1.9,1.743.932,4.565,2.829,2.829Z"/><path class="d" d="M167.433,113.451q0-18.978,0-37.956,0-9.26,0-18.519c0-1.9-.733-5.508,1.6-6.3,1-.338,2.005.248,2.921.608q1.155.455,2.308.914c8.237,3.279,16.427,6.675,24.608,10.09q16.038,6.7,32.021,13.522,17.9,7.623,35.752,15.332,17.823,7.688,35.617,15.445,15.717,6.854,31.405,13.774,11.649,5.145,23.26,10.376a15.325,15.325,0,0,1,6.38,4.613,14.545,14.545,0,0,1,2.39,4.717,15.924,15.924,0,0,1,.432,4.544q-.007,9.657-.027,19.314-.038,21.13-.07,42.26,0,3.855,0,7.711c0,2.573,4,2.578,4,0q0-20.1.056-40.2.02-10.761.036-21.522c0-2.955.016-5.909.01-8.863a17.235,17.235,0,0,0-3.747-10.473,18.07,18.07,0,0,0-7.218-5.453q-2.441-1.107-4.885-2.2-5.923-2.663-11.862-5.292-15.118-6.708-30.279-13.323-17.848-7.8-35.728-15.53-18.355-7.937-36.745-15.8-17.038-7.279-34.12-14.459c-8.878-3.724-17.766-7.427-26.7-11.026q-2.538-1.023-5.082-2.03a18.953,18.953,0,0,0-2.7-1,6.169,6.169,0,0,0-5.224,1.232c-2.675,2.145-2.41,5.337-2.41,8.413q0,4.262,0,8.523l0,41.036v7.524c0,2.574,4,2.578,4,0Z"/><path class="e" d="M252.677,155.954a18.909,18.909,0,0,1,7.263,5.337,18.654,18.654,0,0,1,4.254,6.86c2.206,6.816,1.166,14.405-1.361,21a49.13,49.13,0,0,1-2.475,5.36,23.9,23.9,0,0,1-3.082,4.985c-1.726,1.9,1.095,4.74,2.828,2.828,2.58-2.844,4.33-6.716,5.817-10.222a45.385,45.385,0,0,0,3.128-11.756,29.949,29.949,0,0,0-.741-12.414,22.485,22.485,0,0,0-4.829-8.674,23.537,23.537,0,0,0-9.739-7.165c-2.434-.853-3.48,3.01-1.063,3.857Z"/><path class="e" d="M195.064,197.141a29.68,29.68,0,0,1,.14-4.4c.013-.144.03-.288.045-.432.04-.387-.091.521.006-.011.05-.275.111-.547.168-.821.147-.716.3-1.431.509-2.133a2,2,0,0,0-3.857-1.064,26.667,26.667,0,0,0-1.011,8.862,2,2,0,0,0,4,0Z"/><path class="e" d="M238.585,221.74a18.782,18.782,0,0,0,6.809-4.542c.786-.819,1.523-1.681,2.232-2.567a20.429,20.429,0,0,0,2.044-2.8,2,2,0,1,0-3.453-2.019,9.355,9.355,0,0,1-.628.951,3.478,3.478,0,0,1-.514.691l.15-.194-.168.215-.26.328c-.692.865-1.412,1.709-2.178,2.51-.284.3-.577.586-.881.864q-.263.242-.535.473c-.114.1-.231.193-.348.287-.4.322.256-.179-.08.065a18.436,18.436,0,0,1-1.628,1.08q-.421.245-.859.461c-.15.074-.3.142-.453.214-.209.092-.207.092.008,0q-.159.065-.321.126a2.046,2.046,0,0,0-1.4,2.46,2.023,2.023,0,0,0,2.46,1.4Z"/><path class="e" d="M199.7,175.779a7.2,7.2,0,0,0-7.141-3.254c-2.953.463-4.439,3.128-5.259,5.754-1.668,5.345-.28,11.924,4.76,14.915,2.219,1.316,4.233-2.14,2.019-3.454-3.126-1.855-3.934-5.9-3.22-9.258.249-1.17.8-3.512,2.033-3.958a3.16,3.16,0,0,1,3.354,1.274c1.376,2.167,4.84.163,3.454-2.019Z"/><path class="e" d="M255.05,201.906a4.77,4.77,0,0,1,.7-.039c.1,0,.2.006.307.017-.187-.027-.156-.019.091.026a3.6,3.6,0,0,1,.936.327,3.252,3.252,0,0,1,.987.791c-.131-.152.2.287.2.3.021.034.259.569.152.268a3.558,3.558,0,0,1,.108.379q-.027-.354,0,.094a.713.713,0,0,1-.052.415,4.8,4.8,0,0,1-.362.987,12.346,12.346,0,0,1-1.337,2.165,11.274,11.274,0,0,1-4.227,3.269,8.136,8.136,0,0,1-2.4.611,6.476,6.476,0,0,1-2.871-.472,2.019,2.019,0,0,0-2.46,1.4,2.044,2.044,0,0,0,1.4,2.461c4.26,1.579,8.719-.1,11.975-2.98,2.858-2.528,5.919-7.311,3.29-10.971a7.145,7.145,0,0,0-6.435-3.041,2.064,2.064,0,0,0-2,2,2.012,2.012,0,0,0,2,2Z"/><path class="d" d="M102.7,165.085c18.191-14.245,36.166-28.77,54.449-42.9,3.07-2.372,6.146-4.742,9.3-7.009l-1.541.2a2.686,2.686,0,0,1,.442.183c-.441-.288-.014-.006.155.067q.638.275,1.274.552,1.575.689,3.144,1.395,4.262,1.909,8.5,3.862,12.1,5.541,24.165,11.16,8.1,3.759,16.205,7.523a2.057,2.057,0,0,0,2.736-.717,2.016,2.016,0,0,0-.717-2.736q-16.651-7.732-33.314-15.441c-6.681-3.08-13.344-6.224-20.113-9.109a5.428,5.428,0,0,0-1.95-.668,4.025,4.025,0,0,0-2.209,1.145q-1.7,1.251-3.388,2.531-4.578,3.468-9.1,7.012-11.524,8.981-22.954,18.082-13.941,11.037-27.915,22.036a2.011,2.011,0,0,0,0,2.828,2.05,2.05,0,0,0,2.829,0Z"/><path class="d" d="M146.664,167.047a46.447,46.447,0,0,1,3.718-5.969c1.357-1.76,2.93-3.358,4.437-4.987,2.778-3,5.619-5.951,8.613-8.742,3.6-3.357,7.511-6.963,12.443-8.1a17.153,17.153,0,0,1,8.223.211,31.057,31.057,0,0,1,6.645,3.021c4.78,2.568,9.679,4.929,14.382,7.638,2.235,1.288,4.252-2.167,2.019-3.453-4.432-2.554-9.039-4.8-13.554-7.2a49.265,49.265,0,0,0-7.046-3.445,21.428,21.428,0,0,0-9.2-1.047c-5.822.644-10.322,3.849-14.6,7.605a137.708,137.708,0,0,0-9.85,9.706c-1.691,1.815-3.428,3.6-4.994,5.531a48.1,48.1,0,0,0-4.686,7.206c-1.245,2.256,2.208,4.276,3.454,2.019Z"/><path class="d" d="M267.273,180.937c12.98,6.6,26.285,12.554,37.577,21.924,1.13.938,2.244,1.9,3.3,2.923a14.185,14.185,0,0,1,2.022,2.308,20.662,20.662,0,0,1,3.017,7.485c1.405,7.289-1.528,14.375-5.835,20.133-.265.354-.517.715-.783,1.068.255-.338-.175.218-.25.311q-.284.35-.572.694c-1.078,1.285-2.206,2.53-3.359,3.748a84.569,84.569,0,0,1-9.817,9.008,2.067,2.067,0,0,0-.718,2.736,2.014,2.014,0,0,0,2.737.718,80.775,80.775,0,0,0,15.433-15.2c4.5-6,7.853-12.882,7.476-20.565a22.918,22.918,0,0,0-7.027-15.756,93.929,93.929,0,0,0-15.393-11.5c-8.315-5.044-17.132-9.093-25.788-13.5-2.289-1.164-4.316,2.286-2.019,3.454Z"/><path class="e" d="M218.018,190.817c-.694.809-1.364,1.646-1.985,2.512a3.06,3.06,0,0,0-.566,1.378,2.386,2.386,0,0,0,.16,1.3,3.126,3.126,0,0,0,.618.927,3.209,3.209,0,0,0,1.165.783c.249.1.491.171.746.254a2,2,0,0,0,2.258-2.938,2.17,2.17,0,0,0-1.195-.919c-.168-.055-.342-.089-.507-.154l.478.2a1.546,1.546,0,0,1-.33-.19l.4.313a1.987,1.987,0,0,1-.3-.308l.313.405a.893.893,0,0,1-.1-.155l.2.477a.385.385,0,0,1-.026-.1l.071.531a.771.771,0,0,1,0-.159l-.072.532a1.153,1.153,0,0,1,.068-.216l-.2.478a5.853,5.853,0,0,1,.695-1.006l-.313.405q.6-.775,1.239-1.52a2.133,2.133,0,0,0,.586-1.415,2,2,0,0,0-2-2,1.983,1.983,0,0,0-1.415.586Z"/><path class="e" d="M237.808,189.856a5.951,5.951,0,0,1-.693-.052l.532.071a8.1,8.1,0,0,1-1.956-.545l.478.2a7.443,7.443,0,0,1-1.6-.9l.405.313a4.308,4.308,0,0,1-.737-.71l.312.405c-.024-.031-.047-.062-.07-.094a2.178,2.178,0,0,0-1.2-.919,2.043,2.043,0,0,0-1.541.2,2.017,2.017,0,0,0-.919,1.195,1.948,1.948,0,0,0,.2,1.541,6.959,6.959,0,0,0,1.581,1.563,7.37,7.37,0,0,0,1.333.771,9.773,9.773,0,0,0,3.869.962,2,2,0,0,0,0-4Z"/><path class="e" d="M208.252,181.942a10.839,10.839,0,0,0,6.632,2.5,2.015,2.015,0,0,0,2-2,2.044,2.044,0,0,0-2-2q-.436-.021-.868-.078l.531.072a9.878,9.878,0,0,1-2.422-.659l.478.2a7.73,7.73,0,0,1-1.628-.932l.405.313c-.1-.079-.2-.161-.3-.245a2.123,2.123,0,0,0-1.414-.586,2.037,2.037,0,0,0-1.415.586,2.009,2.009,0,0,0-.585,1.414,1.982,1.982,0,0,0,.585,1.414Z"/><path class="e" d="M221.112,140.983a32.858,32.858,0,0,0-18.577,9.519,34.688,34.688,0,0,0-8.792,17.28c-.485,2.515,3.37,3.592,3.857,1.063a30.9,30.9,0,0,1,7.763-15.515,29.4,29.4,0,0,1,16.812-8.49,2.015,2.015,0,0,0,1.4-2.46,2.049,2.049,0,0,0-2.46-1.4Z"/><path class="e" d="M253.521,153.465c-2.267-6.905-8-11.026-14.425-13.772a34.892,34.892,0,0,0-21.012-1.8c-2.506.584-1.445,4.441,1.064,3.857a31.912,31.912,0,0,1,9.181-.526,26.522,26.522,0,0,1,8.748,1.92c5.392,2.279,10.664,5.525,12.587,11.381.8,2.435,4.663,1.393,3.857-1.063Z"/><path class="c" d="M290.179,250.7c-18.27-11.89-62.527-37.064-71.165-41.264-16.424-7.988-97.3-47.2-123.229-44.84-12.691,1.154-24.379,7.194-35.363,13.653C34.606,193.425,23.7,201.67,2.026,222.34h0A106.276,106.276,0,0,0,108.3,328.618h208.54c.574-8.609-2.253-37.728-2.8-40.912-2.378-13.847-6.409-21.934-16.488-31.721A61.8,61.8,0,0,0,290.179,250.7Z"/><path class="d" d="M3.44,223.754c12.9-12.292,26.223-23.832,41.213-33.517A304.018,304.018,0,0,1,71.314,174.5c8.223-4.193,17.589-8.032,26.976-8a63.328,63.328,0,0,1,14.383,2.079c6.3,1.482,12.507,3.393,18.641,5.461,14.076,4.746,27.86,10.361,41.487,16.26q17.52,7.586,34.744,15.831c6.628,3.155,13.186,6.371,19.62,9.908,11.2,6.157,22.284,12.52,33.313,18.973,10.31,6.031,20.679,12.052,30.616,18.689,1.387.926,2.77,1.864,4.092,2.881-.457-.352.193.157.333.275.181.152.359.307.533.468a62.119,62.119,0,0,1,4.593,4.812,48.5,48.5,0,0,1,10.721,22.214c.259,1.209.5,2.424.7,3.643.033.194.172,1.147.088.512.117.889.216,1.781.313,2.672.308,2.81.578,5.624.833,8.439.648,7.13,1.228,14.277,1.507,21.433a74.513,74.513,0,0,1,.031,7.577c-.162,2.57,3.839,2.561,4,0,.389-6.2-.235-12.533-.689-18.714-.475-6.468-1.029-12.936-1.753-19.381a62.745,62.745,0,0,0-5.351-19.923,49.3,49.3,0,0,0-6.984-10.611,45.09,45.09,0,0,0-6.205-6.364,114.43,114.43,0,0,0-10.006-6.792c-5.219-3.3-10.507-6.491-15.812-9.652q-17.73-10.563-35.741-20.65c-6.941-3.891-13.9-7.69-21.067-11.147Q199.527,197.811,183.6,190.7c-13.9-6.192-27.947-12.121-42.243-17.357-11.991-4.391-24.39-8.727-37.108-10.4-18.008-2.362-34.7,7.482-49.568,16.38-7.86,4.7-15.626,9.582-23.037,14.972A246.918,246.918,0,0,0,11.615,210.68c-3.722,3.357-7.376,6.788-11,10.246-1.868,1.779.964,4.605,2.828,2.828Z"/><path class="e" d="M240.622,175.319a24.265,24.265,0,0,1,4.689,8.994,32.645,32.645,0,0,1,1.714,11.03c-.1,2.574,3.9,2.57,4,0a36.278,36.278,0,0,0-1.969-12.443,28.678,28.678,0,0,0-5.606-10.409c-1.708-1.932-4.528.9-2.828,2.828Z"/><path class="e" d="M236.234,167.59a83.715,83.715,0,0,0-10.118,1.677q-1.122.234-2.243.468c-.36.074-.72.148-1.081.219a1.459,1.459,0,0,0-.427.084q-.578.049.391.625.46,1.062.63.358a4.835,4.835,0,0,0,.563-2.431,3.417,3.417,0,0,0-.922-2.509c-1.251-1.241-3.032-.691-4.522-.3a41.972,41.972,0,0,0-4.579,1.532,84.978,84.978,0,0,0-9.32,4.32c-1.7.912-3.413,1.766-5.141,2.619-2.308,1.139-.284,4.59,2.019,3.453,4.083-2.014,8.052-4.276,12.257-6.031,1.485-.62,2.995-1.188,4.532-1.664.683-.211,1.372-.4,2.068-.564a4.631,4.631,0,0,0,.881-.181c.054-.152-1.293-.566-1.292-.567-.108.1-.132.559-.193.737-.551,1.6-.507,3.342,1.185,4.273,1.346.741,3.107.072,4.507-.219a89.678,89.678,0,0,1,10.805-1.9c2.547-.21,2.57-4.212,0-4Z"/><path class="f" d="M83.178,47.63c-2.267-2.057-5.421-2.739-9.056-1.844a.472.472,0,0,0-.2.82c2.1,1.816,2.659,5.024,2.71,9.474.121,10.5-5.821,22.807-14.967,28.486a21.166,21.166,0,0,1-9.139,3.284.475.475,0,0,0-.356.731c3.238,5.281,12.96,5.668,20.278,1.135,10.165-6.3,15.771-19.235,15.611-30.9A16.6,16.6,0,0,0,83.178,47.63Z"/><path class="f" d="M49.983,53.058A10.488,10.488,0,0,1,45.5,61.074c-2.488,1.557-4.509.494-4.518-2.371a10.494,10.494,0,0,1,4.475-8C47.941,49.146,49.968,50.2,49.983,53.058Z"/></svg>